<svg xmlns="http://www.w3.org/2000/svg" viewBox="0 0 56.29 66.89"><defs><style>.cls-1{fill:#1f97bb;}.cls-2{fill:#ecb807;}.cls-3{fill:#d8a20b;}.cls-4{fill:#212529;}</style></defs><title>pinboard_logo</title><g id="Layer_3" data-name="Layer 3"><path class="cls-1" d="M53,242.43a4.9,4.9,0,0,1-.54-.57.08.08,0,0,1,0,0,32.06,32.06,0,0,1-2-4,21.59,21.59,0,0,0-1.5-2.3,27.93,27.93,0,0,1-1.53-2.45c-.48-.86-1-1.72-1.38-2.63a8.52,8.52,0,0,1-.41-1.3,1.65,1.65,0,0,0-3-.39,2.92,2.92,0,0,1-.24.37l0,0a5.46,5.46,0,0,1-.68.68l0,0a5.49,5.49,0,0,1-.87.51l-.06,0a4.92,4.92,0,0,1-.81.23,1.65,1.65,0,0,0-1,.75,1.68,1.68,0,0,0-.16,1.26,1.61,1.61,0,0,0,.75,1,1.82,1.82,0,0,0,.74.2.55.55,0,0,1,.48.32h0a6.58,6.58,0,0,0,2.18,2.24,7.41,7.41,0,0,1,1.13,1.11c.32.44.62.89.94,1.32.45.61.92,1.2,1.42,1.77a36.48,36.48,0,0,0,2.72,2.7l1.64,1.46a1.69,1.69,0,0,0,1.15.48c.4,0,1.78,1.28,2,1s-.4-2.18-.42-2.61A1.63,1.63,0,0,0,53,242.43Z" transform="translate(0.29 -182.5)"/></g><g id="Layer_2" data-name="Layer 2"><path class="cls-2" d="M36.05,192.36a3.69,3.69,0,0,0-.31-1.18.46.46,0,0,1-.12-.24c0-.35-.11-1-.09-1.09a11.19,11.19,0,0,1,.76-1.34,5.72,5.72,0,0,0,.57-2,3,3,0,0,0-.56-2,2.69,2.69,0,0,0-1.74-1.1,6.61,6.61,0,0,0-1.72,0l-1.71.15a35.61,35.61,0,0,0-7,1.31,25.85,25.85,0,0,0-3,1.14l-.06,0a1.41,1.41,0,0,0-.37.18l-.11.06c-.76.37-1.51.77-2.23,1.2-.45.26-.88.54-1.31.83a.5.5,0,0,1-.43.05,1.25,1.25,0,0,0-1.2.1,84,84,0,0,0-6.8,5.27,40.66,40.66,0,0,0-3.68,3.63l0,0-.21.18a1,1,0,0,0-.23.32l-.06.09c-.56.65-1.1,1.33-1.61,2a6.29,6.29,0,0,0-1.52,4.29,4.71,4.71,0,0,0,.41,1.51,2.65,2.65,0,0,0,.32.5,2.37,2.37,0,0,0,.41.48,4,4,0,0,0,1.28.78,5.56,5.56,0,0,0,1.21.26c.59.07,2.55.69,3,.81a.32.32,0,0,0,.14,0h.2c.06,0,.62.14.68.14s.28.11.27.14a2.35,2.35,0,0,1,.34.28,6.17,6.17,0,0,0,.92.68c1.73.53,3.25,1.11,4.86,1.75a31.82,31.82,0,0,1,6.64,3.42c.88.66,1.72,1.36,2.55,2.08l-.08.05a20.54,20.54,0,0,0-5,4.68,22.23,22.23,0,0,0-3.85,6.1,8.66,8.66,0,0,0-.42,1.74,7.3,7.3,0,0,0-.08.94,7.72,7.72,0,0,0,.09,1.07,4.54,4.54,0,0,0,2,3.16,6.53,6.53,0,0,0,3.38.9,17.25,17.25,0,0,0,3.72-.36h0a.48.48,0,0,1,.43.13A1.46,1.46,0,0,0,26,236a64.82,64.82,0,0,0,7.48-2.34,62.9,62.9,0,0,0,7.39-3.35,14.84,14.84,0,0,0,3.31-2.35,27.72,27.72,0,0,0,2.5-2.92c.91-1.14,1.82-2.28,2.7-3.46a21.84,21.84,0,0,0,2-3.16,13.33,13.33,0,0,0,.84-2,11.17,11.17,0,0,0,.43-2.13,7.78,7.78,0,0,0-.69-4.14,7.51,7.51,0,0,0-2.42-2.83,8,8,0,0,0-3.23-1.43,10.41,10.41,0,0,0-4.34.11,12.53,12.53,0,0,0-3.7,1.64c-.77.48-1.51,1-2.25,1.55a.48.48,0,0,1-.74-.24l-.12-.39a30.56,30.56,0,0,1-.87-3.76,18.31,18.31,0,0,1,0-4.56,18.71,18.71,0,0,1,1.24-4.4c.24-.53.5-1,.79-1.55a1.47,1.47,0,0,0-.4-1.92M26,208.72l-.2-.18.07,0Z" transform="translate(0.29 -182.5)"/></g><g id="Layer_1" data-name="Layer 1"><path class="cls-3" d="M8.73,201.42a17.8,17.8,0,0,1,.79-2.37l-.14.35A17.06,17.06,0,0,1,11.3,196a1.41,1.41,0,0,0,.15-1.1,1.49,1.49,0,0,0-.66-.86,1.46,1.46,0,0,0-1.1-.14l-.34.14a1.41,1.41,0,0,0-.51.52A18,18,0,0,0,6,200.66a1.46,1.46,0,0,0,.14,1.1,1.41,1.41,0,0,0,2,.51,1.47,1.47,0,0,0,.66-.85Z" transform="translate(0.29 -182.5)"/><path class="cls-3" d="M12.06,201.08a12.85,12.85,0,0,1,.65-2l-.14.34a13.91,13.91,0,0,1,1.19-2.22,1.46,1.46,0,0,0,.15-1.1,1.44,1.44,0,0,0-.66-.85,1.41,1.41,0,0,0-1.1-.15,1.59,1.59,0,0,0-.85.66,14.59,14.59,0,0,0-2,4.55,1.5,1.5,0,0,0,.15,1.1,1.43,1.43,0,0,0,2,.52,1.46,1.46,0,0,0,.66-.86Z" transform="translate(0.29 -182.5)"/><path class="cls-3" d="M16.39,200.4a9.27,9.27,0,0,1,.36-1.05l-.14.34a8.1,8.1,0,0,1,1-1.71l-.22.29.16-.19a1.55,1.55,0,0,0,.42-1,1.47,1.47,0,0,0-.42-1,1.42,1.42,0,0,0-1-.42,1.37,1.37,0,0,0-1,.42,9.2,9.2,0,0,0-1.14,1.68,9.59,9.59,0,0,0-.74,1.9,1.43,1.43,0,0,0,1,1.76,1.43,1.43,0,0,0,1.76-1Z" transform="translate(0.29 -182.5)"/><path class="cls-3" d="M41,212.9a20.91,20.91,0,0,1-.2,3.26l.06-.37-.09.59a1.5,1.5,0,0,0,.14,1.1,1.41,1.41,0,0,0,2,.51,1.37,1.37,0,0,0,.66-.85,25.17,25.17,0,0,0,.34-4.24,1.47,1.47,0,0,0-.42-1,1.42,1.42,0,0,0-1-.42A1.46,1.46,0,0,0,41,212.9Z" transform="translate(0.29 -182.5)"/><path class="cls-3" d="M33.55,225.11A7.89,7.89,0,0,0,39.83,222a2.5,2.5,0,0,0,.22-2.77,1.53,1.53,0,0,0-.86-.66,1.46,1.46,0,0,0-1.1.15,1.43,1.43,0,0,0-.51,1.95.54.54,0,0,1,.07.13l-.14-.34a.59.59,0,0,1,.05.19l-.05-.38a1,1,0,0,1,0,.24l.05-.38a1.39,1.39,0,0,1-.09.35l.14-.34a2.67,2.67,0,0,1-.31.51l.23-.29a7,7,0,0,1-1,1l.28-.22a6.43,6.43,0,0,1-1.48.86l.35-.14a6.78,6.78,0,0,1-1.71.47l.38,0a7.31,7.31,0,0,1-.8,0,1.47,1.47,0,0,0-1,.42,1.42,1.42,0,0,0,1,2.43Z" transform="translate(0.29 -182.5)"/><path class="cls-3" d="M44.86,210l.09.59-.05-.38a33.26,33.26,0,0,1,.2,6.69,1.41,1.41,0,0,0,.41,1,1.44,1.44,0,0,0,1,.42,1.41,1.41,0,0,0,1-.42,1.56,1.56,0,0,0,.42-1,34.46,34.46,0,0,0-.33-7.66,1.48,1.48,0,0,0-.66-.85,1.46,1.46,0,0,0-1.1-.15,1.41,1.41,0,0,0-.85.66l-.15.34a1.4,1.4,0,0,0,0,.76Z" transform="translate(0.29 -182.5)"/></g><g id="Calque_4" data-name="Calque 4"><path class="cls-4" d="M33.07,192h0l0,0,0,0S33.16,191.89,33.07,192Z" transform="translate(0.29 -182.5)"/><path class="cls-4" d="M19.45,187.62h0C19.71,187.52,19.51,187.59,19.45,187.62Z" transform="translate(0.29 -182.5)"/><path class="cls-4" d="M25.9,235.11h0Z" transform="translate(0.29 -182.5)"/><path class="cls-4" d="M20.63,235.16h.05l-.12,0Z" transform="translate(0.29 -182.5)"/><path class="cls-4" d="M50.05,208l0,0h0C50.11,208.13,50.11,208.09,50.05,208Z" transform="translate(0.29 -182.5)"/><path class="cls-4" d="M16.84,233.74Z" transform="translate(0.29 -182.5)"/><path class="cls-4" d="M50.88,208.89l0-.07h0C50.91,209,50.91,208.93,50.88,208.89Z" transform="translate(0.29 -182.5)"/><path class="cls-4" d="M42.59,227.83l0,0h0l0,0h0Z" transform="translate(0.29 -182.5)"/><path class="cls-4" d="M37,220.75Z" transform="translate(0.29 -182.5)"/><path class="cls-4" d="M38.7,219.36a1,1,0,0,0-.78.1,1.09,1.09,0,0,0-.43.5l0-.05a4.1,4.1,0,0,1-.41.74.35.35,0,0,1-.08.1l.08-.09-.12.15c-.1.11-.2.22-.31.32l-.28.25,0,0-.17.11a5.32,5.32,0,0,1-.66.37,5.64,5.64,0,0,1-1.07.29,4.24,4.24,0,0,1-.62,0,1,1,0,1,0,0,2,6,6,0,0,0,3.32-.92,5.83,5.83,0,0,0,1.29-1.09,5.67,5.67,0,0,0,1-1.62,1,1,0,0,0-.1-.79A1,1,0,0,0,38.7,219.36Z" transform="translate(0.29 -182.5)"/><path class="cls-4" d="M6.63,202.14a1,1,0,0,0,.79-.11,1,1,0,0,0,.47-.61,11.92,11.92,0,0,1,.73-2.61,13.44,13.44,0,0,1,.81-1.55c.16-.26.33-.52.51-.77l.14-.19,0,0,.3-.36a1.09,1.09,0,0,0,.3-.73A1,1,0,0,0,9,194.45a13.34,13.34,0,0,0-3.05,6.43,1.2,1.2,0,0,0,.1.79A1.1,1.1,0,0,0,6.63,202.14Z" transform="translate(0.29 -182.5)"/><path class="cls-4" d="M9.86,200.76a1,1,0,0,0,1.86-.24,11.08,11.08,0,0,1,.59-2,11.19,11.19,0,0,1,1.22-2.09,1,1,0,0,0-.36-1.39,1,1,0,0,0-.79-.11,1.24,1.24,0,0,0-.61.47,10.94,10.94,0,0,0-2,4.62A1.06,1.06,0,0,0,9.86,200.76Z" transform="translate(0.29 -182.5)"/><path class="cls-4" d="M15.12,200.4a1.05,1.05,0,0,0,1-1,1.64,1.64,0,0,1,0-.23,4.63,4.63,0,0,1,.23-.83,4.41,4.41,0,0,1,.46-.79c.09-.12.19-.22.29-.33a1,1,0,0,0,0-1.44,1.05,1.05,0,0,0-1.45,0,5.62,5.62,0,0,0-1.59,3.62A1,1,0,0,0,15.12,200.4Z" transform="translate(0.29 -182.5)"/><path class="cls-4" d="M45.45,212.94a20.83,20.83,0,0,1,.16,3.35,1,1,0,0,0,1,1,1,1,0,0,0,1-1,22.68,22.68,0,0,0-.8-6.66,1,1,0,0,0-2,.55A21.8,21.8,0,0,1,45.45,212.94Z" transform="translate(0.29 -182.5)"/><path class="cls-4" d="M43.53,216.29v-2.86a1,1,0,0,0-2,0v2.86a1,1,0,0,0,2,0Z" transform="translate(0.29 -182.5)"/><path class="cls-4" d="M55.71,247.65a1.07,1.07,0,0,1-.16-.14,1,1,0,0,0,.11-1.17C53.6,242.72,51.71,239,50,235.21c-.47-1-.93-2.08-1.37-3.13q-1-2.47-2-5a.14.14,0,0,0,0-.06,26.73,26.73,0,0,0,1.87-2A23.63,23.63,0,0,0,53,217.55c1-2.84,1.55-6.22.12-9-1.53-3-5.22-4.11-8.35-4.18A13.8,13.8,0,0,0,36.26,207l-.11.08a59.05,59.05,0,0,1,0-8.2q.12-1.62.33-3.24a58.18,58.18,0,0,1,1.7-8c.21-.75.44-1.5.69-2.24a1,1,0,0,0-.71-1.25,1.1,1.1,0,0,0-.44,0,3.43,3.43,0,0,0-2-1.18A23.43,23.43,0,0,0,33,182.6c-.88-.06-1.77-.1-2.66-.1a37.78,37.78,0,0,0-5.52.42c-.85.13-1.7.29-2.54.47a1,1,0,0,0-.72,1.26l0,.06a.88.88,0,0,0-.32,0,46,46,0,0,0-8.5,4,44,44,0,0,0-7.39,5.63,39.92,39.92,0,0,0-3.1,3.27,10.74,10.74,0,0,0-2.36,4.2,5.16,5.16,0,0,0,0,2.47,4.34,4.34,0,0,0,1.27,2.11l.2.17a1.12,1.12,0,0,0,.61.49l.2.08a10.06,10.06,0,0,0,1.28.62,12.43,12.43,0,0,0,2.07.65c.84.33,1.69.66,2.52,1l1.63.68c2.7,1.14,5.38,2.37,8,3.73q2.46,1.28,4.83,2.71a50.71,50.71,0,0,0-3.63,3.85,42.88,42.88,0,0,0-3.26,4.23c-1.74,2.65-3.21,6.39-1.22,9.3,1.86,2.72,5.46,3.34,8.53,3.36a29,29,0,0,0,10.47-2.1A44.72,44.72,0,0,0,38,233.16q3.06,3.22,6.22,6.36t6.39,6.17c1.22,1.14,2.46,2.28,3.69,3.41a1.06,1.06,0,0,0,1.45,0A1,1,0,0,0,55.71,247.65ZM36.16,185.37c-.12-.14,0-.07,0,0ZM1.77,202.83a6,6,0,0,1,.3-1.12l0-.06c0-.1.09-.21.14-.31s.2-.41.32-.6a13.14,13.14,0,0,1,.72-1.11,1.13,1.13,0,0,0,.1-.13l.16-.2.44-.51A41.59,41.59,0,0,1,7.71,195c.66-.58,1.34-1.15,2-1.69.06,0,.39-.29.11-.09l.25-.19.58-.43c.36-.27.72-.52,1.09-.77a44.19,44.19,0,0,1,4.62-2.78c.9-.46,1.81-.9,2.74-1.3l.31-.14h0l.19-.08.7-.28c.48-.19,1-.38,1.46-.55a1,1,0,0,0,.71-1.25l0-.08a1.19,1.19,0,0,0,.32,0c1-.21,1.92-.39,2.89-.52a35.69,35.69,0,0,1,7.16-.21c.65.05,1.29.12,1.94.2a5.42,5.42,0,0,1,.8.17,1.46,1.46,0,0,1,.19.07l.06,0,.17.11.18.18v0a.64.64,0,0,1,.08.14l0,.1a1.8,1.8,0,0,1,.05.19,5.23,5.23,0,0,1,0,.56,3.5,3.5,0,0,1-.13.56c-.06.22-.15.43-.23.65l-.06.15-.17.32c-.12.22-.25.43-.38.64-.6,1-1.24,1.89-1.91,2.79l-.24.32-.09.12-.05.06h0l0,.05,0,0-.52.66q-.52.66-1.08,1.29c-.75.86-1.54,1.68-2.35,2.48s-1.65,1.56-2.52,2.29c-.44.37-.89.74-1.35,1.09l0,0-.12.1-.35.26-.7.51a41.54,41.54,0,0,1-5.92,3.6c-.51.25-1,.49-1.55.71l-.09,0-.2.08-.42.17-.85.31a22.26,22.26,0,0,1-3.41.91l-.73.11a15.74,15.74,0,0,1-3.94,0c-.31,0-.61-.1-.9-.16-1-.37-1.91-.74-2.87-1.09L3,205.37l-.28-.19L2.57,205l-.23-.23-.11-.12v0a2,2,0,0,1-.2-.31l-.09-.17h0a4,4,0,0,1-.15-.57A4.07,4.07,0,0,1,1.77,202.83Zm.12,1.29h0Zm.87,1.08.05,0Zm31.62,27.42-.28.12-.13.06h0l-1.16.47c-.8.3-1.6.58-2.41.83s-1.64.46-2.47.64c-.43.1-.86.18-1.29.25l-.61.09h-.1l-.34,0a21.52,21.52,0,0,1-4.88,0h0l-.08,0-.18,0-.53-.11a9.34,9.34,0,0,1-1-.27l-.47-.16-.17-.07-.12-.05a7.5,7.5,0,0,1-.88-.48l-.19-.14a1.71,1.71,0,0,1-.14-.11l.11.1c-.12-.12-.26-.22-.38-.33s-.22-.23-.32-.35-.21-.28,0,0l-.15-.22c-.1-.15-.19-.3-.28-.46l-.1-.21a1,1,0,0,0,0-.1c-.05-.16-.1-.32-.14-.48l-.06-.25s0-.07,0-.1a5.17,5.17,0,0,1,0-1c0-.07,0-.15,0-.22V230c0-.18.07-.35.11-.52a10.68,10.68,0,0,1,.33-1.1l.09-.23s0-.07.05-.1a5.05,5.05,0,0,1,.24-.53,16.59,16.59,0,0,1,1.17-2c.22-.33.45-.65.69-1,.12-.16.24-.33.37-.49a2.35,2.35,0,0,1,.19-.25h0a1.34,1.34,0,0,0,.11-.14q1.57-2,3.33-3.86c.57-.6,1.16-1.19,1.76-1.77a1,1,0,0,0,.23-.35l1.1.73c.67.46,1.32.93,2,1.41l.5.38.08.06.24.19.95.77a1.15,1.15,0,0,0,.72.29,1.06,1.06,0,0,0,.72-.29,1,1,0,0,0,0-1.45,59.5,59.5,0,0,0-5-3.67C23.73,215,22,213.93,20.2,213s-3.65-1.91-5.51-2.77c-1.14-.53-2.29-1-3.45-1.54a23,23,0,0,0,3.94-.93,36.11,36.11,0,0,0,8.53-4.29,47.63,47.63,0,0,0,7.22-5.91,45,45,0,0,0,4-4.54c-.23,1.26-.41,2.52-.55,3.8a57.72,57.72,0,0,0-.1,11.9,61.25,61.25,0,0,0,1,6.89,1,1,0,0,0,1.26.72,1,1,0,0,0,.71-1.26c-.3-1.41-.55-2.83-.75-4.25,0-.39-.09-.78-.14-1.18l.41-.38.37-.32.15-.11a.27.27,0,0,1,.08-.07,12.31,12.31,0,0,1,1.77-1.08l.45-.21.13-.06h0l.16-.06c.32-.13.65-.24,1-.34a10.3,10.3,0,0,1,2-.46h0l.25,0,.53,0c.36,0,.72,0,1.07,0s.7,0,1,.07c.08,0,.39.06,0,0l.22,0,.56.1c.34.07.68.16,1,.26l.53.17.26.1.11,0a7.79,7.79,0,0,1,1,.52A4,4,0,0,1,50,208h0l0,0,0,0,0,0,.23.2c.13.12.25.25.37.38l.15.17,0,0,0,0v0a.09.09,0,0,1,0,0s0,0,0,0a5.08,5.08,0,0,1,.51.87l0,.07a1.19,1.19,0,0,1,.08.2,5.52,5.52,0,0,1,.16.54,3.88,3.88,0,0,1,.11.49,1.7,1.7,0,0,1,0,.22v.1a9.92,9.92,0,0,1,0,2.11l0,.25v.05c0,.18-.06.36-.09.54-.07.34-.14.68-.23,1a18.6,18.6,0,0,1-.61,1.92c0,.15-.11.31-.17.46a.87.87,0,0,0-.07.17l0,.08c-.14.32-.28.63-.44.94A22.08,22.08,0,0,1,48,222.4l-.15.2,0,.05-.33.42c-.21.26-.43.52-.65.77-.46.52-.94,1-1.43,1.51s-1,1-1.57,1.44l-.81.67-.39.31,0,0-.07,0,0,0-.22.16a39.62,39.62,0,0,1-7.43,4.38Zm14.81,8.94q-3.21-3.08-6.31-6.25c-1-1.05-2.06-2.1-3.07-3.17.66-.39,1.32-.8,2-1.23A37.59,37.59,0,0,0,45,228.49q1.38,3.6,2.95,7.11c1.14,2.56,2.37,5.09,3.67,7.58.24.46.49.92.74,1.38C51.29,243.56,50.23,242.56,49.19,241.56Z" transform="translate(0.29 -182.5)"/></g></svg>